<?xml version="1.0" standalone="no"?>
<!DOCTYPE svg PUBLIC "-//W3C//DTD SVG 20010904//EN"
 "http://www.w3.org/TR/2001/REC-SVG-20010904/DTD/svg10.dtd">
<svg version="1.0" xmlns="http://www.w3.org/2000/svg"
 width="700.000000pt" height="700.000000pt" viewBox="0 0 700.000000 700.000000"
 preserveAspectRatio="xMidYMid meet">
<metadata>
Created by potrace 1.14, written by Peter Selinger 2001-2017
</metadata>
<g transform="translate(0.000000,700.000000) scale(0.100000,-0.100000)"
fill="#000000" stroke="none">
<path d="M1240 4825 l0 -155 133 0 132 0 450 -1420 450 -1420 145 2 145 3 400
1254 c221 690 405 1256 410 1258 6 2 92 -248 193 -554 101 -307 288 -874 415
-1261 l231 -703 145 3 145 3 421 1417 420 1418 133 0 132 0 0 155 0 155 -540
0 -540 0 0 -155 0 -155 226 0 226 0 -7 -27 c-36 -160 -604 -2247 -611 -2245
-5 1 -174 512 -376 1135 l-366 1132 156 5 157 5 3 153 3 152 -546 0 -545 0 0
-155 0 -155 156 0 c121 0 155 -3 152 -12 -3 -7 -166 -516 -364 -1131 -197
-614 -363 -1116 -368 -1114 -9 3 -665 2214 -666 2245 0 9 51 12 220 12 l220 0
0 155 0 155 -545 0 -545 0 0 -155z"/>
</g>
</svg>
