<svg  viewBox="0 0 660 633" fill="none" xmlns="http://www.w3.org/2000/svg">
<mask id="mask0_34_161" style="mask-type:alpha" maskUnits="userSpaceOnUse" x="0" y="0" width="660" height="621">
<ellipse cx="329.86" cy="310.5" rx="329.86" ry="310.5" fill="#D9D9D9"/>
</mask>
<g mask="url(#mask0_34_161)">
<g filter="url(#filter0_f_34_161)">
<path d="M-108 48.1868C-108 21.574 -86.6373 0 -60.2851 0H721.285C747.637 0 769 21.574 769 48.1868V359.474C769 386.086 747.637 407.66 721.285 407.66H-60.2851C-86.6373 407.66 -108 386.086 -108 359.474V48.1868Z" fill="url(#paint0_linear_34_161)" fill-opacity="0.9"/>
</g>
</g>
<mask id="mask1_34_161" style="mask-type:alpha" maskUnits="userSpaceOnUse" x="0" y="12" width="660" height="621">
<ellipse cx="329.86" cy="322.5" rx="329.86" ry="310.5" fill="#D9D9D9"/>
</mask>
<g mask="url(#mask1_34_161)">
<g filter="url(#filter1_f_34_161)">
<path d="M-43 569.187C-43 542.574 -21.6373 521 4.71491 521H786.285C812.637 521 834 542.574 834 569.187V880.474C834 907.086 812.637 928.66 786.285 928.66H4.71489C-21.6373 928.66 -43 907.086 -43 880.474V569.187Z" fill="url(#paint1_linear_34_161)" fill-opacity="0.9"/>
</g>
</g>
<defs>
<filter id="filter0_f_34_161" x="-112" y="-4" width="885" height="415.661" filterUnits="userSpaceOnUse" color-interpolation-filters="sRGB">
<feFlood flood-opacity="0" result="BackgroundImageFix"/>
<feBlend mode="normal" in="SourceGraphic" in2="BackgroundImageFix" result="shape"/>
<feGaussianBlur stdDeviation="2" result="effect1_foregroundBlur_34_161"/>
</filter>
<filter id="filter1_f_34_161" x="-47" y="517" width="885" height="415.661" filterUnits="userSpaceOnUse" color-interpolation-filters="sRGB">
<feFlood flood-opacity="0" result="BackgroundImageFix"/>
<feBlend mode="normal" in="SourceGraphic" in2="BackgroundImageFix" result="shape"/>
<feGaussianBlur stdDeviation="2" result="effect1_foregroundBlur_34_161"/>
</filter>
<linearGradient id="paint0_linear_34_161" x1="-108" y1="-1.42609e-05" x2="692.544" y2="437.861" gradientUnits="userSpaceOnUse">
<stop stop-color="#8DFF1C" stop-opacity="0.26"/>
<stop offset="1" stop-color="#FFD337"/>
</linearGradient>
<linearGradient id="paint1_linear_34_161" x1="-43" y1="521" x2="757.544" y2="958.861" gradientUnits="userSpaceOnUse">
<stop stop-color="#8DFF1C" stop-opacity="0.26"/>
<stop offset="1" stop-color="#FFD337"/>
</linearGradient>
</defs>
</svg>
